<svg xmlns="http://www.w3.org/2000/svg" width="105" height="36" viewBox="0 0 105 36" fill="none"><path d="M104.796 14.9101C103.985 10.794 100.669 7.57954 96.5244 6.85517C91.5693 5.98742 87.1442 8.65102 85.2742 12.7181C85.1341 13.0199 85.0281 13.3368 84.9183 13.6575C84.7556 14.1253 84.6004 14.5932 84.5095 15.0874H84.4982C83.6767 18.9507 79.5733 21.6106 75.2239 20.0147C72.6271 19.0602 70.9728 16.5022 70.9728 13.7443V10.2431H67.2896C65.5408 10.2431 64.1212 11.6579 64.1212 13.401V13.6613H64.1137V13.6688C64.1137 13.7217 64.1212 13.7707 64.1212 13.8235V17.3322C64.1212 19.0752 62.7055 20.4863 60.9566 20.4863H53.6091C51.8603 20.4863 50.4407 19.0715 50.4407 17.3284V3.15783C50.4407 1.4148 49.0212 0 47.2723 0H43.5891V16.9248C43.5891 22.6632 48.2565 27.3113 54.0104 27.3113H60.5819C63.7578 27.3113 66.5628 25.8625 68.4669 23.6252C68.7546 23.8931 69.0536 24.1534 69.3678 24.3949C69.4133 24.4288 69.4587 24.4628 69.5003 24.4968C69.894 24.7948 70.3028 25.074 70.7268 25.3305C70.8063 25.3796 70.8896 25.4286 70.9691 25.4777C71.9154 26.021 72.9299 26.4586 74.0012 26.768C74.1412 26.8095 74.2851 26.8397 74.4251 26.8774C74.8302 26.9792 75.239 27.0623 75.6478 27.1264C75.803 27.1528 75.962 27.1792 76.1172 27.1981C76.6699 27.266 77.2301 27.3113 77.8017 27.3113C81.3184 27.3113 84.5171 25.9795 86.9435 23.8063C87.0041 23.7535 87.0533 23.6856 87.1101 23.6328C88.435 22.4029 89.4987 20.9126 90.252 19.245C90.6305 18.4075 90.9599 17.5397 91.1643 16.6192C91.1756 16.5663 91.1946 16.5135 91.2059 16.4607C91.2097 16.4343 91.2059 16.4041 91.2135 16.3777C91.2248 16.3211 91.2362 16.2645 91.2476 16.2079C91.664 14.4158 93.462 13.1482 95.4683 13.6009C96.7364 13.8877 97.7661 14.9101 98.0575 16.1702C98.5837 18.4565 96.8538 20.4863 94.6507 20.4863C94.4122 20.4863 94.1813 20.4561 93.9617 20.3995C93.3598 20.2486 92.7314 20.4372 92.3718 20.9352L89.0407 25.5795C90.6608 26.6397 92.5687 27.2999 94.6507 27.2999C101.048 27.2999 106.09 21.5125 104.788 14.9025L104.796 14.9101Z" fill="#8B03FF"></path><path d="M13.9796 14.5328C13.6427 14.9667 13.5518 15.5288 13.707 16.0532C13.8357 16.4871 13.8849 16.9625 13.813 17.4718C13.6237 18.8413 12.6206 20.0071 11.2843 20.3655C9.02822 20.9767 6.84025 19.3016 6.84782 16.9776C6.84782 15.5854 7.72983 14.3178 9.02065 13.7782C9.50897 13.5745 9.98972 13.5028 10.4515 13.5217C11.008 13.5481 11.538 13.3142 11.8786 12.8728L15.5354 8.14169C13.0673 6.70048 10.0238 6.1987 6.91596 7.27772C2.89584 8.67365 0.0605624 12.5559 -4.29817e-06 16.7927C-0.0984252 23.7573 6.45792 28.7902 13.1884 26.9189C17.2767 25.7795 20.3201 22.0671 20.6533 17.8491C20.9107 14.5894 19.6615 11.79 17.6514 9.77908L13.9796 14.5328Z" fill="#8B03FF"></path><path d="M33.3079 3.15783V17.3284C33.3079 19.0715 31.8884 20.4863 30.1395 20.4863H26.2254C24.4765 20.4863 23.057 21.9011 23.057 23.6441V27.315H29.7345C35.4921 27.315 40.1557 22.6632 40.1557 16.9285V0H36.4725C34.7237 0 33.3041 1.4148 33.3041 3.15783H33.3079Z" fill="#8B03FF"></path><path d="M61.6304 29.0203C59.6961 29.0203 58.1289 30.5823 58.1289 32.5102C58.1289 34.4381 59.6961 36 61.6304 36C63.5648 36 65.1319 34.4381 65.1319 32.5102C65.1319 30.5823 63.5648 29.0203 61.6304 29.0203Z" fill="#8B03FF"></path><path d="M52.9126 29.0203C50.9783 29.0203 49.4111 30.5823 49.4111 32.5102C49.4111 34.4381 50.9783 36 52.9126 36C54.847 36 56.4141 34.4381 56.4141 32.5102C56.4141 30.5823 54.847 29.0203 52.9126 29.0203Z" fill="#8B03FF"></path></svg>